<svg width="34" height="34" viewBox="0 0 34 34" fill="none" xmlns="http://www.w3.org/2000/svg">
<g filter="url(#filter0_d_45_2558)">
<path fill-rule="evenodd" clip-rule="evenodd" d="M24.1264 27.9963C22.2512 27.9273 16.9369 27.193 11.3713 21.6298C5.80703 16.0654 5.07389 10.7535 5.00357 8.8774C4.89939 6.01835 7.0897 3.24132 9.61987 2.15681C9.92456 2.02527 10.2582 1.97519 10.5881 2.01148C10.918 2.04777 11.2328 2.16919 11.5016 2.36382C13.5851 3.88187 15.0227 6.17849 16.2572 7.98427C16.5288 8.38101 16.6449 8.86379 16.5835 9.34062C16.522 9.81745 16.2872 10.255 15.9238 10.5699L13.3832 12.4564C13.2605 12.545 13.1741 12.6752 13.1401 12.8227C13.1061 12.9702 13.1268 13.125 13.1983 13.2584C13.7739 14.3039 14.7974 15.861 15.9694 17.0327C17.1427 18.2045 18.773 19.2955 19.8916 19.936C20.0319 20.0147 20.197 20.0367 20.353 19.9975C20.5089 19.9583 20.644 19.8608 20.7303 19.7251L22.3841 17.2085C22.6881 16.8047 23.1366 16.5342 23.6357 16.4536C24.1348 16.373 24.6457 16.4886 25.0614 16.7762C26.8936 18.0443 29.0318 19.4569 30.597 21.4606C30.8075 21.7313 30.9414 22.0535 30.9847 22.3936C31.028 22.7337 30.9791 23.0792 30.8431 23.394C29.7532 25.9366 26.9951 28.1018 24.1264 27.9963Z" fill="#699BF7"/>
<path d="M24.0896 28.9956L24.0897 28.9956C27.4568 29.1194 30.5445 26.626 31.7612 23.7905C31.9682 23.3112 32.0426 22.7852 31.9767 22.2673C31.9108 21.7495 31.7069 21.2589 31.3865 20.8467L31.3851 20.845C29.8204 18.842 27.731 17.402 26.0011 16.2097C25.8755 16.1232 25.7519 16.038 25.6305 15.954L25.6303 15.9538C25.0022 15.5193 24.2303 15.3446 23.4763 15.4664C22.7223 15.5881 22.0446 15.9968 21.5852 16.607L21.5659 16.6325L21.5483 16.6593L20.0829 18.8893C19.0316 18.2605 17.6635 17.3113 16.676 16.3251C15.6943 15.3435 14.8049 14.0432 14.2387 13.0667L16.52 11.3728L16.5503 11.3503L16.5787 11.3256C17.1277 10.8499 17.4824 10.1889 17.5753 9.46849C17.6681 8.74831 17.4928 8.01916 17.0827 7.41991C16.9624 7.24392 16.8385 7.06047 16.7107 6.87119C15.5714 5.18432 14.1189 3.03353 12.0904 1.55559L12.0904 1.55559L12.088 1.55386C11.6788 1.25756 11.1996 1.07273 10.6975 1.01748C10.1957 0.962281 9.68822 1.03834 9.22471 1.2382C6.40351 2.44803 3.88181 5.55385 4.00423 8.91381L4.00427 8.91485C4.08197 10.9877 4.88595 16.5585 10.6642 22.3369L10.6644 22.3371C16.4438 28.114 22.0169 28.9194 24.0896 28.9956Z" stroke="white" stroke-width="2"/>
</g>
<defs>
<filter id="filter0_d_45_2558" x="0" y="0" width="34" height="34" filterUnits="userSpaceOnUse" color-interpolation-filters="sRGB">
<feFlood flood-opacity="0" result="BackgroundImageFix"/>
<feColorMatrix in="SourceAlpha" type="matrix" values="0 0 0 0 0 0 0 0 0 0 0 0 0 0 0 0 0 0 127 0" result="hardAlpha"/>
<feOffset dx="-1" dy="2"/>
<feGaussianBlur stdDeviation="1"/>
<feComposite in2="hardAlpha" operator="out"/>
<feColorMatrix type="matrix" values="0 0 0 0 0 0 0 0 0 0 0 0 0 0 0 0 0 0 0.25 0"/>
<feBlend mode="normal" in2="BackgroundImageFix" result="effect1_dropShadow_45_2558"/>
<feBlend mode="normal" in="SourceGraphic" in2="effect1_dropShadow_45_2558" result="shape"/>
</filter>
</defs>
</svg>
