<svg width="24" height="22" viewBox="0 0 24 22" fill="none" xmlns="http://www.w3.org/2000/svg">
<path d="M21.2308 2.76923H18.0323L16.4596 0.410769C16.3754 0.284483 16.2613 0.180927 16.1274 0.109276C15.9936 0.0376248 15.8441 9.11595e-05 15.6923 0H8.30769C8.15588 9.11595e-05 8.00643 0.0376248 7.87259 0.109276C7.73875 0.180927 7.62464 0.284483 7.54038 0.410769L5.96654 2.76923H2.76923C2.03479 2.76923 1.33042 3.06099 0.811089 3.58032C0.291757 4.09965 0 4.80402 0 5.53846V18.4615C0 19.196 0.291757 19.9004 0.811089 20.4197C1.33042 20.939 2.03479 21.2308 2.76923 21.2308H21.2308C21.9652 21.2308 22.6696 20.939 23.1889 20.4197C23.7082 19.9004 24 19.196 24 18.4615V5.53846C24 4.80402 23.7082 4.09965 23.1889 3.58032C22.6696 3.06099 21.9652 2.76923 21.2308 2.76923ZM16.1538 11.5385C16.1538 12.36 15.9102 13.1631 15.4538 13.8462C14.9974 14.5293 14.3486 15.0617 13.5896 15.3761C12.8306 15.6905 11.9954 15.7728 11.1896 15.6125C10.3839 15.4522 9.64371 15.0566 9.06279 14.4757C8.48186 13.8947 8.08625 13.1546 7.92597 12.3488C7.76569 11.5431 7.84795 10.7079 8.16235 9.94885C8.47674 9.18984 9.00915 8.5411 9.69225 8.08467C10.3753 7.62823 11.1784 7.38462 12 7.38462C13.1017 7.38462 14.1582 7.82225 14.9372 8.60125C15.7162 9.38025 16.1538 10.4368 16.1538 11.5385Z" fill="white"/>
</svg>
