<svg width="62" height="46" viewBox="0 0 62 46" fill="none" xmlns="http://www.w3.org/2000/svg">
<path d="M2.98147 27.5543L2.27756 28.2646L17.8871 43.734C17.8873 43.7343 17.8876 43.7345 17.8879 43.7348C18.2918 44.1363 18.7712 44.4544 19.2984 44.6713C19.8259 44.8884 20.3911 45 20.9617 45C21.5324 45 22.0976 44.8884 22.6251 44.6713C23.1521 44.4545 23.6313 44.1365 24.0351 43.7352C24.0355 43.7348 24.0359 43.7344 24.0364 43.734L59.0127 9.07166L59.0183 9.07719L59.7224 8.37938C60.5394 7.56977 61 6.46978 61 5.32088C61 4.17198 60.5394 3.07199 59.7224 2.26238C58.9058 1.45306 57.8001 1 56.649 1C55.498 1 54.3923 1.45306 53.5756 2.26237L20.9646 34.5752L8.42437 22.1476C8.01994 21.7468 7.5403 21.4294 7.01307 21.2129C6.48586 20.9965 5.9211 20.8852 5.35097 20.8852C4.78083 20.8852 4.21607 20.9965 3.68886 21.2129C3.16163 21.4294 2.68199 21.7468 2.27757 22.1476C1.87312 22.5484 1.55181 23.0248 1.33243 23.5496C1.11304 24.0745 1 24.6374 1 25.2061C1 25.7748 1.11304 26.3377 1.33243 26.8626C1.55181 27.3875 1.87312 27.8638 2.27756 28.2646L2.98147 27.5543Z" fill="white" stroke="white" stroke-width="2"/>
</svg>
