<svg width="24" height="24" viewBox="0 0 24 24" fill="none" xmlns="http://www.w3.org/2000/svg">
<path fill-rule="evenodd" clip-rule="evenodd" d="M15.5005 4H18.0005C18.5505 4 19.0005 4.45 19.0005 5C19.0005 5.55 18.5505 6 18.0005 6H6.00049C5.45049 6 5.00049 5.55 5.00049 5C5.00049 4.45 5.45049 4 6.00049 4H8.50049L9.21049 3.29C9.39049 3.11 9.65049 3 9.91049 3H14.0905C14.3505 3 14.6105 3.11 14.7905 3.29L15.5005 4ZM8.00049 21C6.90049 21 6.00049 20.1 6.00049 19V9C6.00049 7.9 6.90049 7 8.00049 7H16.0005C17.1005 7 18.0005 7.9 18.0005 9V19C18.0005 20.1 17.1005 21 16.0005 21H8.00049Z" fill="white"/>
</svg>
