<svg width="31" height="34" viewBox="0 0 31 34" fill="none" xmlns="http://www.w3.org/2000/svg">
<g filter="url(#filter0_d_627_2196)">
<path d="M15.1429 2C18.0981 2 20.9324 3.17398 23.022 5.26367C25.1117 7.35336 26.2857 10.1876 26.2857 13.1429C26.2857 17.756 22.7695 22.5895 15.8857 27.7524C15.6714 27.9131 15.4107 28 15.1429 28C14.875 28 14.6143 27.9131 14.4 27.7524C7.51619 22.5895 4 17.756 4 13.1429C4 10.1876 5.17398 7.35336 7.26367 5.26367C9.35336 3.17398 12.1876 2 15.1429 2ZM15.1429 9.42857C14.1578 9.42857 13.213 9.8199 12.5165 10.5165C11.8199 11.213 11.4286 12.1578 11.4286 13.1429C11.4286 14.1279 11.8199 15.0727 12.5165 15.7693C13.213 16.4658 14.1578 16.8571 15.1429 16.8571C16.1279 16.8571 17.0727 16.4658 17.7693 15.7693C18.4658 15.0727 18.8571 14.1279 18.8571 13.1429C18.8571 12.1578 18.4658 11.213 17.7693 10.5165C17.0727 9.8199 16.1279 9.42857 15.1429 9.42857Z" fill="#FF6341"/>
<path fill-rule="evenodd" clip-rule="evenodd" d="M15.1429 0C18.6286 0 21.9715 1.38469 24.4363 3.84945C26.901 6.31422 28.2857 9.65715 28.2857 13.1429C28.2857 18.7795 24.0398 24.1368 17.0857 29.3524C16.5252 29.7728 15.8435 30 15.1429 30C14.4422 30 13.7605 29.7728 13.2 29.3524C6.24593 24.1368 2 18.7795 2 13.1429C2 9.65716 3.38469 6.31422 5.84945 3.84945C8.31422 1.38469 11.6572 0 15.1429 0ZM15.1429 11.4286C14.6882 11.4286 14.2522 11.6092 13.9307 11.9307C13.6092 12.2522 13.4286 12.6882 13.4286 13.1429C13.4286 13.5975 13.6092 14.0336 13.9307 14.355C14.2522 14.6765 14.6882 14.8571 15.1429 14.8571C15.5975 14.8571 16.0336 14.6765 16.355 14.355C16.6765 14.0336 16.8571 13.5975 16.8571 13.1429C16.8571 12.6882 16.6765 12.2522 16.355 11.9307C16.0336 11.6092 15.5975 11.4286 15.1429 11.4286ZM23.022 5.26367C20.9324 3.17398 18.0981 2 15.1429 2C12.1876 2 9.35336 3.17398 7.26367 5.26367C5.17398 7.35336 4 10.1876 4 13.1429C4 17.756 7.51619 22.5895 14.4 27.7524C14.6143 27.9131 14.875 28 15.1429 28C15.4107 28 15.6714 27.9131 15.8857 27.7524C22.7695 22.5895 26.2857 17.756 26.2857 13.1429C26.2857 10.1876 25.1117 7.35336 23.022 5.26367ZM12.5165 10.5165C13.213 9.8199 14.1578 9.42857 15.1429 9.42857C16.1279 9.42857 17.0727 9.8199 17.7693 10.5165C18.4658 11.213 18.8571 12.1578 18.8571 13.1429C18.8571 14.1279 18.4658 15.0727 17.7693 15.7693C17.0727 16.4658 16.1279 16.8571 15.1429 16.8571C14.1578 16.8571 13.213 16.4658 12.5165 15.7693C11.8199 15.0727 11.4286 14.1279 11.4286 13.1429C11.4286 12.1578 11.8199 11.213 12.5165 10.5165Z" fill="white"/>
</g>
<defs>
<filter id="filter0_d_627_2196" x="0" y="0" width="30.2856" height="34" filterUnits="userSpaceOnUse" color-interpolation-filters="sRGB">
<feFlood flood-opacity="0" result="BackgroundImageFix"/>
<feColorMatrix in="SourceAlpha" type="matrix" values="0 0 0 0 0 0 0 0 0 0 0 0 0 0 0 0 0 0 127 0" result="hardAlpha"/>
<feOffset dy="2"/>
<feGaussianBlur stdDeviation="1"/>
<feComposite in2="hardAlpha" operator="out"/>
<feColorMatrix type="matrix" values="0 0 0 0 0 0 0 0 0 0 0 0 0 0 0 0 0 0 0.25 0"/>
<feBlend mode="normal" in2="BackgroundImageFix" result="effect1_dropShadow_627_2196"/>
<feBlend mode="normal" in="SourceGraphic" in2="effect1_dropShadow_627_2196" result="shape"/>
</filter>
</defs>
</svg>
