<svg width="28" height="28" viewBox="0 0 28 28" fill="none" xmlns="http://www.w3.org/2000/svg">
<path d="M21.5112 11.3857C22.3856 10.5112 23.0852 9.98658 23.6098 9.46192C26.408 6.66372 29.2062 2.29153 27.4573 0.542653C25.7085 -1.20622 21.5112 1.59198 18.713 4.39018C18.1883 4.91484 17.6636 5.61439 16.7892 6.48883L4.54708 0.892428C3.32286 0.367765 1.92376 0.542652 1.04933 1.41709L0 2.29153L11.5426 12.2601C9.26904 15.0583 6.82061 17.6816 5.5964 19.2556L3.67264 18.2063C2.7982 17.6816 1.57399 17.6816 0.874438 18.5561L0.349775 19.0807L5.24663 22.7534L8.74438 27.6502L9.26904 27.1256C9.96859 26.426 10.1435 25.2018 9.61882 24.3274L8.74438 22.4036C10.3184 21.1794 12.9417 18.731 15.7399 16.4574L25.7085 28L26.5829 27.1256C27.4573 26.2511 27.6322 24.852 27.1076 23.6278L21.5112 11.3857Z" fill="white"/>
</svg>
