<svg width="32" height="34" viewBox="0 0 32 34" fill="none" xmlns="http://www.w3.org/2000/svg">
<g filter="url(#filter0_d_627_2209)">
<path d="M2 26V4C2 1.6 4 0 6 0H26C28 0 30 2 30 3.5V18C30 20.5 29.3333 20.8333 29 21.5L22 29C21.2 29.8 20.3333 30 20 30H6C3.5 30 2 28 2 26Z" fill="white"/>
<path d="M26 2H6C5.46957 2 4.96086 2.22827 4.58579 2.6346C4.21071 3.04093 4 3.59203 4 4.16667V25.8333C4 26.408 4.21071 26.9591 4.58579 27.3654C4.96086 27.7717 5.46957 28 6 28H19.5863C19.8489 28.0005 20.1091 27.9446 20.3517 27.8356C20.5944 27.7266 20.8147 27.5666 21 27.3649L27.4137 20.4167C27.5999 20.2159 27.7476 19.9772 27.8482 19.7144C27.9488 19.4515 28.0004 19.1697 28 18.8851V4.16667C28 3.59203 27.7893 3.04093 27.4142 2.6346C27.0391 2.22827 26.5304 2 26 2ZM12 9.58333H20C20.2652 9.58333 20.5196 9.69747 20.7071 9.90063C20.8946 10.1038 21 10.3793 21 10.6667C21 10.954 20.8946 11.2295 20.7071 11.4327C20.5196 11.6359 20.2652 11.75 20 11.75H12C11.7348 11.75 11.4804 11.6359 11.2929 11.4327C11.1054 11.2295 11 10.954 11 10.6667C11 10.3793 11.1054 10.1038 11.2929 9.90063C11.4804 9.69747 11.7348 9.58333 12 9.58333ZM16 20.4167H12C11.7348 20.4167 11.4804 20.3025 11.2929 20.0994C11.1054 19.8962 11 19.6206 11 19.3333C11 19.046 11.1054 18.7705 11.2929 18.5673C11.4804 18.3641 11.7348 18.25 12 18.25H16C16.2652 18.25 16.5196 18.3641 16.7071 18.5673C16.8946 18.7705 17 19.046 17 19.3333C17 19.6206 16.8946 19.8962 16.7071 20.0994C16.5196 20.3025 16.2652 20.4167 16 20.4167ZM12 16.0833C11.7348 16.0833 11.4804 15.9692 11.2929 15.766C11.1054 15.5629 11 15.2873 11 15C11 14.7127 11.1054 14.4371 11.2929 14.234C11.4804 14.0308 11.7348 13.9167 12 13.9167H20C20.2652 13.9167 20.5196 14.0308 20.7071 14.234C20.8946 14.4371 21 14.7127 21 15C21 15.2873 20.8946 15.5629 20.7071 15.766C20.5196 15.9692 20.2652 16.0833 20 16.0833H12ZM20 25.3851V19.3333H25.5875L20 25.3851Z" fill="#FFD233"/>
</g>
<defs>
<filter id="filter0_d_627_2209" x="0" y="0" width="32" height="34" filterUnits="userSpaceOnUse" color-interpolation-filters="sRGB">
<feFlood flood-opacity="0" result="BackgroundImageFix"/>
<feColorMatrix in="SourceAlpha" type="matrix" values="0 0 0 0 0 0 0 0 0 0 0 0 0 0 0 0 0 0 127 0" result="hardAlpha"/>
<feOffset dy="2"/>
<feGaussianBlur stdDeviation="1"/>
<feComposite in2="hardAlpha" operator="out"/>
<feColorMatrix type="matrix" values="0 0 0 0 0 0 0 0 0 0 0 0 0 0 0 0 0 0 0.25 0"/>
<feBlend mode="normal" in2="BackgroundImageFix" result="effect1_dropShadow_627_2209"/>
<feBlend mode="normal" in="SourceGraphic" in2="effect1_dropShadow_627_2209" result="shape"/>
</filter>
</defs>
</svg>
