<svg width="29" height="29" viewBox="0 0 29 29" fill="none" xmlns="http://www.w3.org/2000/svg">
<path fill-rule="evenodd" clip-rule="evenodd" d="M12.0833 21.75C12.0833 23.0791 13.1708 24.1666 14.5 24.1666C15.8291 24.1666 16.9166 23.0791 16.9166 21.75C16.9166 20.4208 15.8291 19.3333 14.5 19.3333C13.1708 19.3333 12.0833 20.4208 12.0833 21.75ZM12.0833 7.24996C12.0833 8.57913 13.1708 9.66663 14.5 9.66663C15.8291 9.66663 16.9166 8.57913 16.9166 7.24996C16.9166 5.92079 15.8291 4.83329 14.5 4.83329C13.1708 4.83329 12.0833 5.92079 12.0833 7.24996ZM14.5 16.9166C13.1708 16.9166 12.0833 15.8291 12.0833 14.5C12.0833 13.1708 13.1708 12.0833 14.5 12.0833C15.8291 12.0833 16.9166 13.1708 16.9166 14.5C16.9166 15.8291 15.8291 16.9166 14.5 16.9166Z" fill="black" fill-opacity="0.54"/>
</svg>
