<svg width="181" height="144" viewBox="0 0 181 144" fill="none" xmlns="http://www.w3.org/2000/svg">
<path d="M2 11.5827V37.0051V49.6364C2 55.1592 6.47715 59.6364 12 59.6364H169C174.523 59.6364 179 55.1592 179 49.6364V19.1748C179 13.652 174.523 9.17483 169 9.17483H69.7985C66.5973 9.17483 63.5895 7.64223 61.708 5.05231L61.0326 4.12251C59.1511 1.53259 56.1433 0 52.9421 0H12.8091C9.05358 0 5.61467 2.10418 3.90518 5.4481L3.09605 7.03084C2.37565 8.44002 2 10.0001 2 11.5827Z" fill="#DAC555"/>
<g filter="url(#filter0_d_306_8202)">
<path d="M169 139.773H12C6.4772 139.773 2.00005 135.29 2.00005 129.767L2 31.5584C2 26.0356 6.47715 21.5423 12 21.5423H54.3251C57.5635 21.5423 60.5517 19.8009 62.1481 16.9833C63.7444 14.1658 66.7326 12.4243 69.971 12.4243H169C174.523 12.4243 179 16.9105 179 22.4333V129.769C179 135.291 174.523 139.773 169 139.773Z" fill="#EED96A"/>
</g>
<path d="M81.6634 40.975C82.4801 40.1584 83.7968 40.1584 84.6134 40.975L98.4634 54.825C99.1134 55.475 99.1134 56.525 98.4634 57.175L84.6134 71.025C83.7968 71.8417 82.4801 71.8417 81.6634 71.025C80.8468 70.2084 80.8468 68.8917 81.6634 68.0751L93.7301 55.9917L81.6468 43.9084C80.8468 43.1084 80.8468 41.775 81.6634 40.975Z" fill="white"/>
<path d="M62.6213 96.445H64.5263V110.335H62.6213V96.445ZM60.8063 101.8H63.1163V103.39H60.8063V101.8ZM59.5163 96.685H61.3763V109.675H59.5163V96.685ZM53.1713 97.975H55.1663V106H53.1713V97.975ZM53.1713 105.25H54.1313C55.4663 105.25 57.0263 105.175 58.7513 104.845L58.9463 106.555C57.1313 106.885 55.5413 106.96 54.1313 106.96H53.1713V105.25ZM76.1118 99.28H79.8918V100.885H76.1118V99.28ZM76.1118 103.585H79.8918V105.19H76.1118V103.585ZM73.7118 97.405C75.7818 97.405 77.2968 99.325 77.2968 102.355C77.2968 105.415 75.7818 107.335 73.7118 107.335C71.6268 107.335 70.1268 105.415 70.1268 102.355C70.1268 99.325 71.6268 97.405 73.7118 97.405ZM73.7118 99.22C72.7068 99.22 72.0168 100.315 72.0168 102.355C72.0168 104.425 72.7068 105.535 73.7118 105.535C74.7318 105.535 75.4068 104.425 75.4068 102.355C75.4068 100.315 74.7318 99.22 73.7118 99.22ZM79.5768 96.43H81.5568V110.365H79.5768V96.43ZM93.6456 96.445H95.5356V105.145H93.6456V96.445ZM91.9506 99.865H94.1706V101.485H91.9506V99.865ZM90.7656 96.715H92.6256V104.695H90.7656V96.715ZM83.6406 97.87H90.3756V99.4H83.6406V97.87ZM87.0306 99.85C88.7706 99.85 90.0306 100.84 90.0306 102.28C90.0306 103.72 88.7706 104.695 87.0306 104.695C85.2906 104.695 84.0306 103.72 84.0306 102.28C84.0306 100.84 85.2906 99.85 87.0306 99.85ZM87.0306 101.275C86.2956 101.275 85.8006 101.635 85.8006 102.28C85.8006 102.925 86.2956 103.285 87.0306 103.285C87.7506 103.285 88.2456 102.925 88.2456 102.28C88.2456 101.635 87.7506 101.275 87.0306 101.275ZM86.0256 96.58H87.9906V98.92H86.0256V96.58ZM90.8406 105.295C93.8106 105.295 95.6106 106.195 95.6106 107.815C95.6106 109.42 93.8106 110.335 90.8406 110.335C87.8556 110.335 86.0556 109.42 86.0556 107.815C86.0556 106.195 87.8556 105.295 90.8406 105.295ZM90.8406 106.78C88.9806 106.78 88.0506 107.095 88.0506 107.815C88.0506 108.52 88.9806 108.85 90.8406 108.85C92.6856 108.85 93.6156 108.52 93.6156 107.815C93.6156 107.095 92.6856 106.78 90.8406 106.78ZM102.516 96.985H111.951V101.905H102.516V96.985ZM109.986 98.545H104.466V100.345H109.986V98.545ZM100.971 103.21H113.526V104.785H100.971V103.21ZM106.236 101.545H108.231V103.66H106.236V101.545ZM102.366 105.79H112.011V110.335H110.016V107.365H102.366V105.79ZM114.77 103.885H127.355V105.475H114.77V103.885ZM116.315 96.715H125.825V100.48H118.31V101.98H116.33V99.07H123.86V98.23H116.315V96.715ZM116.33 101.38H126.095V102.895H116.33V101.38ZM120.065 102.115H122.06V104.755H120.065V102.115ZM116.165 106.255H125.915V110.29H123.92V107.83H116.165V106.255Z" fill="white"/>
<defs>
<filter id="filter0_d_306_8202" x="0" y="12.4243" width="181" height="131.348" filterUnits="userSpaceOnUse" color-interpolation-filters="sRGB">
<feFlood flood-opacity="0" result="BackgroundImageFix"/>
<feColorMatrix in="SourceAlpha" type="matrix" values="0 0 0 0 0 0 0 0 0 0 0 0 0 0 0 0 0 0 127 0" result="hardAlpha"/>
<feOffset dy="2"/>
<feGaussianBlur stdDeviation="1"/>
<feComposite in2="hardAlpha" operator="out"/>
<feColorMatrix type="matrix" values="0 0 0 0 0 0 0 0 0 0 0 0 0 0 0 0 0 0 0.25 0"/>
<feBlend mode="normal" in2="BackgroundImageFix" result="effect1_dropShadow_306_8202"/>
<feBlend mode="normal" in="SourceGraphic" in2="effect1_dropShadow_306_8202" result="shape"/>
</filter>
</defs>
</svg>
