<svg width="181" height="144" viewBox="0 0 181 144" fill="none" xmlns="http://www.w3.org/2000/svg">
<path d="M2 11.5827V37.0051V49.6364C2 55.1592 6.47715 59.6364 12 59.6364H169C174.523 59.6364 179 55.1592 179 49.6364V19.1748C179 13.652 174.523 9.17483 169 9.17483H69.7985C66.5973 9.17483 63.5895 7.64223 61.708 5.05231L61.0326 4.12251C59.1511 1.53259 56.1433 0 52.9421 0H12.8091C9.05358 0 5.61467 2.10418 3.90518 5.4481L3.09605 7.03084C2.37565 8.44002 2 10.0001 2 11.5827Z" fill="#6549BA"/>
<g filter="url(#filter0_d_306_8197)">
<path d="M169 139.773H12C6.4772 139.773 2.00005 135.29 2.00005 129.767L2 31.5584C2 26.0356 6.47715 21.5423 12 21.5423H54.3251C57.5635 21.5423 60.5517 19.8009 62.1481 16.9833C63.7444 14.1658 66.7326 12.4243 69.971 12.4243H169C174.523 12.4243 179 16.9105 179 22.4333V129.769C179 135.291 174.523 139.773 169 139.773Z" fill="#8668E2"/>
</g>
<path fill-rule="evenodd" clip-rule="evenodd" d="M75 59.5C75 58.7037 75.6455 58.0581 76.4419 58.0581H104.558C105.354 58.0581 106 58.7037 106 59.5C106 60.2963 105.354 60.9419 104.558 60.9419H76.4419C75.6455 60.9419 75 60.2963 75 59.5Z" fill="white"/>
<path fill-rule="evenodd" clip-rule="evenodd" d="M90.5 44C91.2963 44 91.9419 44.6455 91.9419 45.4419L91.9419 73.5581C91.9419 74.3545 91.2963 75 90.5 75C89.7037 75 89.0581 74.3545 89.0581 73.5581L89.0581 45.4419C89.0581 44.6455 89.7037 44 90.5 44Z" fill="white"/>
<path fill-rule="evenodd" clip-rule="evenodd" d="M75 59.5C75 58.7037 75.6455 58.0581 76.4419 58.0581H104.558C105.354 58.0581 106 58.7037 106 59.5C106 60.2963 105.354 60.9419 104.558 60.9419H76.4419C75.6455 60.9419 75 60.2963 75 59.5Z" stroke="white" stroke-linecap="round"/>
<path fill-rule="evenodd" clip-rule="evenodd" d="M90.5 44C91.2963 44 91.9419 44.6455 91.9419 45.4419L91.9419 73.5581C91.9419 74.3545 91.2963 75 90.5 75C89.7037 75 89.0581 74.3545 89.0581 73.5581L89.0581 45.4419C89.0581 44.6455 89.7037 44 90.5 44Z" stroke="white" stroke-linecap="round"/>
<path d="M48.165 97.645H49.695V99.985C49.695 103.135 48.81 106.195 46.575 107.545L45.345 106.075C47.415 104.83 48.165 102.34 48.165 99.985V97.645ZM48.555 97.645H50.1V99.835C50.1 102.235 50.73 104.5 52.665 105.565L51.51 107.14C49.26 105.88 48.555 103.015 48.555 99.835V97.645ZM55.635 96.445H57.54V110.335H55.635V96.445ZM53.97 101.845H56.265V103.45H53.97V101.845ZM52.635 96.655H54.51V109.705H52.635V96.655ZM69.0805 99.28H72.8605V100.885H69.0805V99.28ZM69.0805 103.585H72.8605V105.19H69.0805V103.585ZM66.6805 97.405C68.7505 97.405 70.2655 99.325 70.2655 102.355C70.2655 105.415 68.7505 107.335 66.6805 107.335C64.5955 107.335 63.0955 105.415 63.0955 102.355C63.0955 99.325 64.5955 97.405 66.6805 97.405ZM66.6805 99.22C65.6755 99.22 64.9855 100.315 64.9855 102.355C64.9855 104.425 65.6755 105.535 66.6805 105.535C67.7005 105.535 68.3755 104.425 68.3755 102.355C68.3755 100.315 67.7005 99.22 66.6805 99.22ZM72.5455 96.43H74.5255V110.365H72.5455V96.43ZM86.6143 96.445H88.5043V105.145H86.6143V96.445ZM84.9193 99.865H87.1393V101.485H84.9193V99.865ZM83.7343 96.715H85.5943V104.695H83.7343V96.715ZM76.6093 97.87H83.3443V99.4H76.6093V97.87ZM79.9993 99.85C81.7393 99.85 82.9993 100.84 82.9993 102.28C82.9993 103.72 81.7393 104.695 79.9993 104.695C78.2593 104.695 76.9993 103.72 76.9993 102.28C76.9993 100.84 78.2593 99.85 79.9993 99.85ZM79.9993 101.275C79.2643 101.275 78.7693 101.635 78.7693 102.28C78.7693 102.925 79.2643 103.285 79.9993 103.285C80.7193 103.285 81.2143 102.925 81.2143 102.28C81.2143 101.635 80.7193 101.275 79.9993 101.275ZM78.9943 96.58H80.9593V98.92H78.9943V96.58ZM83.8093 105.295C86.7793 105.295 88.5793 106.195 88.5793 107.815C88.5793 109.42 86.7793 110.335 83.8093 110.335C80.8243 110.335 79.0243 109.42 79.0243 107.815C79.0243 106.195 80.8243 105.295 83.8093 105.295ZM83.8093 106.78C81.9493 106.78 81.0193 107.095 81.0193 107.815C81.0193 108.52 81.9493 108.85 83.8093 108.85C85.6543 108.85 86.5843 108.52 86.5843 107.815C86.5843 107.095 85.6543 106.78 83.8093 106.78ZM94.3448 97.585H100.96V104.29H94.3448V97.585ZM98.9948 99.16H96.3098V102.715H98.9948V99.16ZM102.88 96.445H104.875V106.57H102.88V96.445ZM104.305 100.45H106.72V102.085H104.305V100.45ZM95.9198 108.505H105.37V110.095H95.9198V108.505ZM95.9198 105.58H97.9148V109.3H95.9198V105.58ZM107.754 101.83H120.324V103.405H107.754V101.83ZM109.299 99.52H118.839V101.08H109.299V99.52ZM109.299 96.7H118.719V98.29H111.279V100.87H109.299V96.7ZM109.179 104.185H118.779V107.86H111.159V109.06H109.194V106.45H116.814V105.685H109.179V104.185ZM109.194 108.7H119.139V110.23H109.194V108.7ZM131.108 96.445H133.118V110.335H131.108V96.445ZM127.013 97.885H128.993C128.993 102.13 127.553 105.61 122.618 107.995L121.583 106.405C125.573 104.485 127.013 101.965 127.013 98.245V97.885ZM122.318 97.885H127.958V99.46H122.318V97.885Z" fill="white"/>
<defs>
<filter id="filter0_d_306_8197" x="0" y="12.4243" width="181" height="131.348" filterUnits="userSpaceOnUse" color-interpolation-filters="sRGB">
<feFlood flood-opacity="0" result="BackgroundImageFix"/>
<feColorMatrix in="SourceAlpha" type="matrix" values="0 0 0 0 0 0 0 0 0 0 0 0 0 0 0 0 0 0 127 0" result="hardAlpha"/>
<feOffset dy="2"/>
<feGaussianBlur stdDeviation="1"/>
<feComposite in2="hardAlpha" operator="out"/>
<feColorMatrix type="matrix" values="0 0 0 0 0 0 0 0 0 0 0 0 0 0 0 0 0 0 0.25 0"/>
<feBlend mode="normal" in2="BackgroundImageFix" result="effect1_dropShadow_306_8197"/>
<feBlend mode="normal" in="SourceGraphic" in2="effect1_dropShadow_306_8197" result="shape"/>
</filter>
</defs>
</svg>
