<svg width="32" height="32" viewBox="0 0 32 32" fill="none" xmlns="http://www.w3.org/2000/svg">
<g filter="url(#filter0_d_627_2213)">
<path d="M2 23V5C2 2 4 0 6.5 0H25C28 0 30 2 30 5V23C30 26 28 28 25 28H7C4 28 2 26 2 23Z" fill="white"/>
<path d="M6.66667 26C5.93334 26 5.30534 25.7387 4.78267 25.216C4.26 24.6933 3.99911 24.0658 4 23.3333V4.66667C4 3.93334 4.26134 3.30534 4.784 2.78267C5.30667 2.26 5.93422 1.99911 6.66667 2H25.3333C26.0667 2 26.6947 2.26134 27.2173 2.784C27.74 3.30667 28.0009 3.93422 28 4.66667V23.3333C28 24.0667 27.7387 24.6947 27.216 25.2173C26.6933 25.74 26.0658 26.0009 25.3333 26H6.66667ZM8 20.6667H24L19 14L15 19.3333L12 15.3333L8 20.6667Z" fill="#3ACB74"/>
</g>
<defs>
<filter id="filter0_d_627_2213" x="0" y="0" width="32" height="32" filterUnits="userSpaceOnUse" color-interpolation-filters="sRGB">
<feFlood flood-opacity="0" result="BackgroundImageFix"/>
<feColorMatrix in="SourceAlpha" type="matrix" values="0 0 0 0 0 0 0 0 0 0 0 0 0 0 0 0 0 0 127 0" result="hardAlpha"/>
<feOffset dy="2"/>
<feGaussianBlur stdDeviation="1"/>
<feComposite in2="hardAlpha" operator="out"/>
<feColorMatrix type="matrix" values="0 0 0 0 0 0 0 0 0 0 0 0 0 0 0 0 0 0 0.25 0"/>
<feBlend mode="normal" in2="BackgroundImageFix" result="effect1_dropShadow_627_2213"/>
<feBlend mode="normal" in="SourceGraphic" in2="effect1_dropShadow_627_2213" result="shape"/>
</filter>
</defs>
</svg>
