<svg width="28" height="28" viewBox="0 0 28 28" fill="none" xmlns="http://www.w3.org/2000/svg">
<path d="M0.3825 27.495C-0.1275 26.985 -0.1275 26.165 0.3825 25.655L9.3425 16.695L11.1825 18.535L2.2225 27.495C1.7125 28.005 0.8925 28.005 0.3825 27.495Z" fill="#B5B5B5"/>
<path d="M18.0335 17.174L22.6365 12.571L21.0005 6.5L15.2045 5.14L10.6015 9.742L12.0005 15.5L18.0335 17.174Z" fill="#A3D78A"/>
<path d="M15.1835 5.125L22.6535 12.585C22.8956 12.8276 23.1832 13.02 23.4998 13.1513C23.8164 13.2826 24.1558 13.3501 24.4985 13.3501C24.8412 13.3501 25.1806 13.2826 25.4972 13.1513C25.8138 13.02 26.1014 12.8276 26.3435 12.585L27.4535 11.475C27.8735 11.055 27.8735 10.375 27.4535 9.955L17.8135 0.315C17.3935 -0.105 16.7135 -0.105 16.2935 0.315L15.1835 1.425C14.6938 1.91613 14.4187 2.58142 14.4187 3.275C14.4187 3.96858 14.6938 4.63387 15.1835 5.125ZM4.0825 12.565L15.2025 23.685C15.7225 24.205 16.5725 24.205 17.0925 23.685L18.0025 22.775C18.3734 22.405 18.6677 21.9655 18.8685 21.4816C19.0693 20.9977 19.1727 20.4789 19.1727 19.955C19.1727 19.4311 19.0693 18.9123 18.8685 18.4284C18.6677 17.9445 18.3734 17.505 18.0025 17.135L10.6325 9.765C10.2625 9.39407 9.82298 9.09977 9.33907 8.89897C8.85517 8.69817 8.33641 8.59481 7.8125 8.59481C7.28859 8.59481 6.76982 8.69817 6.28592 8.89897C5.80202 9.09977 5.36248 9.39407 4.9925 9.765L4.0825 10.675C3.83274 10.9261 3.69254 11.2658 3.69254 11.62C3.69254 11.9742 3.83274 12.3139 4.0825 12.565Z" fill="#A9EB98"/>
</svg>
