<svg width="334" height="229" viewBox="0 0 334 229" fill="none" xmlns="http://www.w3.org/2000/svg">
<g filter="url(#filter0_d_501_2085)">
<path d="M2 17.5077V86C2 91.5229 6.47714 96 12 96H322C327.523 96 332 91.5228 332 86V24.7692C332 19.2464 327.523 14.7692 322 14.7692H123.559C120.607 14.7692 117.807 13.4656 115.907 11.2074L109.474 3.56182C107.574 1.30361 104.773 0 101.822 0H16.4453C12.9118 0 9.64069 1.86471 7.84046 4.90516L3.3952 12.4128C2.48188 13.9554 2 15.7151 2 17.5077Z" fill="#EAD06F"/>
<path d="M322 225H12.0001C6.47724 225 2.00009 220.493 2.00009 214.97L2 44.7064C2 39.1836 6.47714 34.6778 12 34.6778H103.926C107.295 34.6778 110.438 32.9811 112.287 30.1641L115.994 24.5137C117.843 21.6967 120.986 20 124.355 20H322C327.523 20 332 24.4933 332 30.0161V214.979C332 220.502 327.523 225 322 225Z" fill="#FFEDAE"/>
</g>
<defs>
<filter id="filter0_d_501_2085" x="0" y="0" width="334" height="229" filterUnits="userSpaceOnUse" color-interpolation-filters="sRGB">
<feFlood flood-opacity="0" result="BackgroundImageFix"/>
<feColorMatrix in="SourceAlpha" type="matrix" values="0 0 0 0 0 0 0 0 0 0 0 0 0 0 0 0 0 0 127 0" result="hardAlpha"/>
<feOffset dy="2"/>
<feGaussianBlur stdDeviation="1"/>
<feComposite in2="hardAlpha" operator="out"/>
<feColorMatrix type="matrix" values="0 0 0 0 0 0 0 0 0 0 0 0 0 0 0 0 0 0 0.25 0"/>
<feBlend mode="normal" in2="BackgroundImageFix" result="effect1_dropShadow_501_2085"/>
<feBlend mode="normal" in="SourceGraphic" in2="effect1_dropShadow_501_2085" result="shape"/>
</filter>
</defs>
</svg>
