<svg width="72" height="72" viewBox="0 0 72 72" fill="none" xmlns="http://www.w3.org/2000/svg">
<path fill-rule="evenodd" clip-rule="evenodd" d="M20 16C20 11.7565 21.6857 7.68687 24.6863 4.68629C27.6869 1.68571 31.7565 0 36 0C40.2435 0 44.3131 1.68571 47.3137 4.68629C50.3143 7.68687 52 11.7565 52 16C52 20.2435 50.3143 24.3131 47.3137 27.3137C44.3131 30.3143 40.2435 32 36 32C31.7565 32 27.6869 30.3143 24.6863 27.3137C21.6857 24.3131 20 20.2435 20 16ZM20 40C14.6957 40 9.60859 42.1071 5.85786 45.8579C2.10714 49.6086 0 54.6957 0 60C0 63.1826 1.26428 66.2348 3.51472 68.4853C5.76516 70.7357 8.8174 72 12 72H60C63.1826 72 66.2348 70.7357 68.4853 68.4853C70.7357 66.2348 72 63.1826 72 60C72 54.6957 69.8929 49.6086 66.1421 45.8579C62.3914 42.1071 57.3043 40 52 40H20Z" fill="#6549BA"/>
</svg>
