<svg width="25" height="26" viewBox="0 0 25 26" fill="none" xmlns="http://www.w3.org/2000/svg">
<path d="M24.0298 16.8743C24.0381 16.6835 23.9878 16.4947 23.8855 16.3334C23.7832 16.1721 23.634 16.046 23.4579 15.9721L22.1046 15.5693C22.0321 15.3759 21.9596 15.1826 21.871 14.9973L22.4993 13.8373C22.5936 13.6597 22.6281 13.4563 22.5977 13.2575C22.5672 13.0587 22.4733 12.875 22.3301 12.7337L21.1862 11.5979C21.044 11.456 20.8599 11.3637 20.6611 11.3346C20.4623 11.3056 20.2595 11.3414 20.0826 11.4368L18.9146 12.049C18.7152 11.9524 18.5108 11.8663 18.3023 11.7912L17.9157 10.5184C17.8511 10.3339 17.7299 10.1746 17.5693 10.0632C17.4087 9.95176 17.2169 9.894 17.0215 9.89817H15.4104C15.2103 9.898 15.0154 9.9621 14.8544 10.081C14.6934 10.1999 14.5749 10.3674 14.5162 10.5587L14.1376 11.7993C13.9264 11.874 13.7193 11.9601 13.5173 12.0571L12.3735 11.4448C12.1975 11.3514 11.9963 11.3166 11.7992 11.3456C11.6022 11.3746 11.4195 11.4658 11.2779 11.6059L10.1098 12.7337C9.9648 12.8755 9.86985 13.0607 9.83934 13.2613C9.80882 13.4618 9.84439 13.6668 9.94068 13.8454L10.5368 14.9168C10.4432 15.111 10.3598 15.3099 10.2871 15.5129L9.01429 15.8915C8.82077 15.9476 8.6508 16.0652 8.53014 16.2265C8.40949 16.3879 8.34473 16.5842 8.34568 16.7857V18.3968C8.34647 18.5969 8.41204 18.7913 8.53256 18.9511C8.65309 19.1108 8.82209 19.2272 9.01429 19.2829L10.2951 19.6615C10.3682 19.859 10.4516 20.0526 10.5448 20.2415L9.91651 21.4176C9.82217 21.5953 9.78767 21.7986 9.81815 21.9975C9.84863 22.1963 9.94245 22.38 10.0857 22.5212L11.2296 23.649C11.3708 23.7922 11.5545 23.886 11.7533 23.9165C11.9522 23.947 12.1555 23.9125 12.3332 23.8182L13.5254 23.1898C13.7107 23.2784 13.904 23.3509 14.1054 23.4234L14.5001 24.7284C14.5602 24.9183 14.6793 25.084 14.8402 25.2013C15.001 25.3187 15.1952 25.3816 15.3943 25.3809H17.0054C17.2055 25.3811 17.4004 25.317 17.5614 25.1981C17.7224 25.0792 17.8409 24.9117 17.8996 24.7204L18.2782 23.4476C18.4715 23.3832 18.6568 23.3026 18.8421 23.214L20.0504 23.8504C20.2263 23.9438 20.4275 23.9786 20.6246 23.9496C20.8217 23.9206 21.0044 23.8294 21.146 23.6893L22.2898 22.5615C22.4349 22.4197 22.5298 22.2345 22.5604 22.034C22.5909 21.8334 22.5553 21.6284 22.459 21.4498L21.8226 20.2818C21.9085 20.0992 21.9864 19.9139 22.0562 19.7259L23.3612 19.3473C23.5548 19.2913 23.7247 19.1736 23.8454 19.0123C23.966 18.8509 24.0308 18.6546 24.0298 18.4532V16.8743ZM22.741 18.1873L21.0412 18.6868L20.9446 19.0251C20.8452 19.3582 20.7101 19.6796 20.5418 19.9837L20.3726 20.2898L21.1782 21.8284L20.3726 22.634L18.7615 21.8284L18.4635 21.9896C18.1559 22.1545 17.8319 22.2868 17.4968 22.3843L17.1585 22.4809L16.651 24.1646H15.644L15.1365 22.489L14.7982 22.3923C14.4603 22.2953 14.1336 22.163 13.8235 21.9976L13.5254 21.8365L11.9626 22.6421L11.1571 21.8365L11.9626 20.2737L11.7854 19.9676C11.6238 19.6416 11.4995 19.2984 11.4148 18.9446L11.2779 18.6465L9.66679 18.139V17.0837L11.2779 16.5923L11.3826 16.2621C11.4871 15.9167 11.6304 15.5843 11.8096 15.2712L12.0029 14.9168L11.1973 13.4265L12.0029 12.6693L13.5254 13.4748L13.8315 13.3057C14.1535 13.1293 14.4939 12.9889 14.8465 12.8868L15.1768 12.7901L15.6843 11.179H16.796L17.2954 12.7901L17.6257 12.8868C17.9673 12.9909 18.2968 13.1314 18.6085 13.3057L18.9146 13.4748L20.4612 12.6693L21.2668 13.4748L20.4612 14.9973L20.6304 15.3034C20.7994 15.6129 20.9344 15.9397 21.0332 16.2782L21.1298 16.6165L22.7893 17.1079L22.741 18.1873Z" fill="#6E6E6E"/>
<path d="M16.2079 14.3932C15.5735 14.4058 14.9569 14.6056 14.4356 14.9672C13.9142 15.3289 13.5113 15.8365 13.2773 16.4263C13.0432 17.0161 12.9885 17.6618 13.1201 18.2826C13.2516 18.9033 13.5634 19.4714 14.0165 19.9156C14.4696 20.3598 15.0438 20.6604 15.667 20.7796C16.2902 20.8988 16.9348 20.8313 17.5198 20.5857C18.1049 20.34 18.6043 19.9271 18.9556 19.3987C19.3069 18.8703 19.4944 18.2499 19.4945 17.6154C19.4818 16.7536 19.1294 15.9316 18.514 15.3283C17.8985 14.7249 17.0697 14.3888 16.2079 14.3932ZM16.2079 19.597C15.8225 19.5891 15.4481 19.4676 15.1315 19.2477C14.815 19.0279 14.5703 18.7195 14.4283 18.3612C14.2863 18.0028 14.2533 17.6106 14.3333 17.2336C14.4133 16.8565 14.6028 16.5115 14.8781 16.2418C15.1534 15.972 15.5022 15.7896 15.8808 15.7172C16.2594 15.6449 16.6509 15.686 17.0062 15.8352C17.3616 15.9845 17.665 16.2353 17.8783 16.5563C18.0917 16.8773 18.2056 17.2541 18.2056 17.6395C18.2035 17.8998 18.1502 18.1571 18.0486 18.3967C17.9471 18.6363 17.7994 18.8536 17.6138 19.0361C17.4283 19.2186 17.2087 19.3628 16.9674 19.4604C16.7262 19.5581 16.4681 19.6072 16.2079 19.6051V19.597Z" fill="#6E6E6E"/>
<path d="M8.4504 22.9723H1.61123V2.02786H17.7223V8.38369C18.0739 8.48687 18.3995 8.66382 18.6773 8.90274C18.9551 9.14166 19.1788 9.43706 19.3335 9.76925V2.02786C19.3335 1.60057 19.1637 1.19077 18.8616 0.888631C18.5594 0.58649 18.1496 0.416748 17.7223 0.416748H1.61123C1.18394 0.416748 0.774147 0.58649 0.472006 0.888631C0.169864 1.19077 0.00012207 1.60057 0.00012207 2.02786V22.9723C0.00012207 23.3996 0.169864 23.8094 0.472006 24.1115C0.774147 24.4137 1.18394 24.5834 1.61123 24.5834H9.85207L8.96596 23.7134C8.75064 23.4996 8.57596 23.2485 8.4504 22.9723Z" fill="#6E6E6E"/>
</svg>
