<svg width="26" height="26" viewBox="0 0 26 26" fill="none" xmlns="http://www.w3.org/2000/svg">
<path fill-rule="evenodd" clip-rule="evenodd" d="M7.22222 5.77778C7.22222 4.24542 7.83095 2.77582 8.91449 1.69227C9.99804 0.608728 11.4676 0 13 0C14.5324 0 16.002 0.608728 17.0855 1.69227C18.1691 2.77582 18.7778 4.24542 18.7778 5.77778C18.7778 7.31014 18.1691 8.77974 17.0855 9.86328C16.002 10.9468 14.5324 11.5556 13 11.5556C11.4676 11.5556 9.99804 10.9468 8.91449 9.86328C7.83095 8.77974 7.22222 7.31014 7.22222 5.77778ZM7.22222 14.4444C5.30677 14.4444 3.46977 15.2054 2.11534 16.5598C0.760911 17.9142 0 19.7512 0 21.6667C0 22.8159 0.456546 23.9181 1.2692 24.7308C2.08186 25.5435 3.18406 26 4.33333 26H21.6667C22.8159 26 23.9181 25.5435 24.7308 24.7308C25.5435 23.9181 26 22.8159 26 21.6667C26 19.7512 25.2391 17.9142 23.8847 16.5598C22.5302 15.2054 20.6932 14.4444 18.7778 14.4444H7.22222Z" fill="white"/>
</svg>
