<svg width="142" height="28" viewBox="0 0 142 28" fill="none" xmlns="http://www.w3.org/2000/svg">
<path d="M112.034 13.5465C112.034 13.6981 111.994 13.8118 111.915 13.8875C111.856 13.9633 111.777 14.0012 111.679 14.0012H94.9902C94.2012 14.0012 93.6488 13.8307 93.3332 13.4896C93.0176 13.1296 92.8598 12.6181 92.8598 11.9549V3.3717C92.8598 2.65169 93.0275 2.16853 93.3628 1.92222C93.6981 1.65695 94.2406 1.52432 94.9902 1.52432H111.412C111.688 1.52432 111.827 1.64748 111.827 1.89379V3.74117C111.827 4.00644 111.688 4.13907 111.412 4.13907H96.7952C96.4401 4.13907 96.2626 4.30012 96.2626 4.62223V6.46961H111.028C111.126 6.46961 111.215 6.5075 111.294 6.58329C111.393 6.65908 111.442 6.75382 111.442 6.8675V8.6012C111.442 8.71488 111.393 8.80962 111.294 8.88541C111.215 8.94225 111.126 8.97067 111.028 8.97067H96.2626V10.7612C96.2626 11.1781 96.4401 11.3865 96.7952 11.3865H111.56C111.718 11.3865 111.836 11.4054 111.915 11.4433C111.994 11.4812 112.034 11.5759 112.034 11.7275V13.5465ZM115.703 18.7191C115.703 18.8139 115.653 18.9086 115.555 19.0034C115.456 19.0981 115.358 19.1455 115.259 19.1455H104.133V27.3592C104.133 27.6245 103.995 27.7571 103.719 27.7571H101.145C100.869 27.7571 100.731 27.6245 100.731 27.3592V19.1455H89.4866C89.3682 19.1455 89.2696 19.0981 89.1907 19.0034C89.1118 18.9086 89.0723 18.8139 89.0723 18.7191V16.8718C89.0723 16.5686 89.2104 16.417 89.4866 16.417H115.259C115.358 16.417 115.456 16.4644 115.555 16.5591C115.653 16.6539 115.703 16.7581 115.703 16.8718V18.7191Z" fill="black"/>
<path d="M126.456 21.4476C125.332 21.4476 124.316 21.2202 123.409 20.7655C122.521 20.2918 121.762 19.6476 121.13 18.8328C120.519 17.9991 120.045 17.0044 119.71 15.8486C119.375 14.6928 119.207 13.4233 119.207 12.0402C119.207 10.6191 119.375 9.33068 119.71 8.17488C120.045 7.01908 120.519 6.03382 121.13 5.21907C121.762 4.40433 122.521 3.77907 123.409 3.34327C124.316 2.88853 125.332 2.66117 126.456 2.66117C127.502 2.66117 128.449 2.85064 129.297 3.22959C130.145 3.60854 130.875 4.14854 131.487 4.8496C132.118 5.53171 132.621 6.3654 132.996 7.35066C133.37 8.33593 133.607 9.43489 133.706 10.6475H138.115V1.35379C138.115 1.10747 138.243 0.984314 138.499 0.984314H141.133C141.389 0.984314 141.517 1.10747 141.517 1.35379V27.5866C141.517 27.8329 141.389 27.956 141.133 27.956H138.499C138.243 27.956 138.115 27.8329 138.115 27.5866V13.376H133.706C133.607 14.6075 133.37 15.7254 132.996 16.7297C132.621 17.7149 132.118 18.5581 131.487 19.2591C130.875 19.9602 130.145 20.5002 129.297 20.8792C128.449 21.2581 127.502 21.4476 126.456 21.4476ZM130.421 12.0402C130.421 11.1686 130.333 10.3444 130.155 9.56752C129.978 8.77173 129.721 8.08014 129.386 7.49277C129.05 6.9054 128.636 6.44118 128.143 6.10013C127.65 5.74013 127.088 5.56013 126.456 5.56013C125.845 5.56013 125.293 5.74013 124.799 6.10013C124.326 6.44118 123.922 6.9054 123.586 7.49277C123.251 8.08014 122.994 8.77173 122.817 9.56752C122.639 10.3444 122.551 11.1686 122.551 12.0402C122.551 12.8928 122.639 13.717 122.817 14.5128C122.994 15.2897 123.251 15.9812 123.586 16.5876C123.922 17.1749 124.326 17.6486 124.799 18.0086C125.293 18.3686 125.845 18.5486 126.456 18.5486C127.088 18.5486 127.65 18.3686 128.143 18.0086C128.636 17.6486 129.05 17.1749 129.386 16.5876C129.721 15.9812 129.978 15.2897 130.155 14.5128C130.333 13.717 130.421 12.8928 130.421 12.0402Z" fill="black"/>
<path d="M9.87675 21.9718C9.71573 22.1419 9.54465 22.2554 9.3635 22.3121C9.20248 22.3688 9.02133 22.3216 8.82006 22.1703L7.40106 21.0642C7.24004 20.9319 7.1696 20.7995 7.18973 20.6671C7.22998 20.5159 7.32056 20.3552 7.46145 20.185C7.82374 19.769 8.15585 19.3531 8.45776 18.9371C8.7798 18.5022 9.08171 18.0484 9.3635 17.5758C8.92069 17.1409 8.49802 16.6493 8.09546 16.101C7.69291 15.5337 7.32055 14.9476 6.97838 14.3425C6.53557 15.3068 6.01226 16.2239 5.40844 17.0936C4.80461 17.9634 4.12027 18.8237 3.35542 19.6745C3.1944 19.8447 3.02332 19.9581 2.84217 20.0148C2.66102 20.0716 2.47987 20.0243 2.29872 19.873L0.879732 18.7386C0.718712 18.6251 0.648266 18.5022 0.668394 18.3699C0.708649 18.2186 0.799218 18.0484 0.940111 17.8594C1.88611 16.7627 2.66102 15.6944 3.26485 14.6545C3.8888 13.6146 4.38193 12.5085 4.74422 11.3362C5.10652 10.164 5.35811 8.8877 5.49901 7.50744C5.66003 6.12719 5.74054 4.55785 5.74054 2.79945C5.74054 2.686 5.78079 2.59146 5.8613 2.51583C5.96194 2.42129 6.07265 2.37402 6.19341 2.37402L8.54833 2.45911C8.64897 2.45911 8.73955 2.50638 8.82006 2.60092C8.90057 2.67655 8.94082 2.77109 8.94082 2.88453C8.94082 4.3026 8.8905 5.61668 8.78986 6.82677C8.68923 8.01795 8.52821 9.14295 8.3068 10.2018C8.56846 10.9959 8.92069 11.79 9.3635 12.5841C9.82644 13.3783 10.3196 14.0967 10.8429 14.7396C12.2921 11.2795 13.0167 7.29946 13.0167 2.79945C13.0167 2.686 13.0569 2.59146 13.1374 2.51583C13.2381 2.42129 13.3387 2.37402 13.4393 2.37402L15.8244 2.45911C15.9251 2.45911 16.0157 2.50638 16.0962 2.60092C16.1767 2.67655 16.2169 2.77109 16.2169 2.88453C16.2169 4.20806 16.1465 5.49378 16.0056 6.74168C15.8848 7.97068 15.7037 9.16186 15.4622 10.3152C15.5829 10.9581 15.8245 11.6388 16.1867 12.3573C16.549 13.0568 16.9516 13.747 17.3944 14.4276C17.8573 15.0894 18.3303 15.7039 18.8134 16.2711C19.3166 16.8384 19.7594 17.2921 20.1418 17.6325C20.484 17.9161 20.5041 18.2186 20.2022 18.54L19.0851 19.7029C18.9644 19.8163 18.8235 19.8919 18.6624 19.9298C18.5014 19.9487 18.3203 19.8919 18.119 19.7596C17.8171 19.5327 17.485 19.2396 17.1227 18.8804C16.7604 18.5022 16.3981 18.0863 16.0358 17.6325C15.6735 17.1787 15.3313 16.706 15.0093 16.2144C14.6872 15.7228 14.4155 15.2407 14.1941 14.768C13.0871 17.6419 11.648 20.0432 9.87675 21.9718ZM25.4253 27.5306C25.4253 27.7764 25.2945 27.8993 25.0328 27.8993H22.5269C22.2653 27.8993 22.1344 27.7764 22.1344 27.5306V1.35301C22.1344 1.10721 22.2653 0.984314 22.5269 0.984314H25.0328C25.2945 0.984314 25.4253 1.10721 25.4253 1.35301V27.5306Z" fill="#6549BA"/>
<path d="M48.1422 26.5947C48.1422 26.8594 48.0113 26.9917 47.7497 26.9917H45.274C44.9922 26.9917 44.8513 26.8594 44.8513 26.5947V12.1871H38.964C38.8634 12.1871 38.7627 12.1493 38.6621 12.0736C38.5816 11.998 38.5413 11.9129 38.5413 11.8184V9.83308C38.5413 9.73854 38.5816 9.66291 38.6621 9.60619C38.7627 9.53056 38.8634 9.49274 38.964 9.49274H44.8513V1.83516C44.8513 1.58936 44.9922 1.46646 45.274 1.46646H47.7497C48.0113 1.46646 48.1422 1.58936 48.1422 1.83516V26.5947ZM53.9993 27.5873C53.9993 27.8331 53.8584 27.956 53.5766 27.956H50.9802C50.8795 27.956 50.7789 27.9182 50.6783 27.8426C50.5977 27.767 50.5575 27.6819 50.5575 27.5873V1.35301C50.5575 1.25847 50.5977 1.17339 50.6783 1.09776C50.7789 1.02213 50.8896 0.984314 51.0104 0.984314H53.5766C53.8584 0.984314 53.9993 1.10721 53.9993 1.35301V27.5873ZM43.3116 18.8237C43.3317 18.956 43.2914 19.06 43.1908 19.1356C43.0902 19.1924 42.9694 19.2396 42.8285 19.2774C42.1039 19.4665 41.3089 19.6272 40.4434 19.7596C39.598 19.873 38.7225 19.9676 37.8167 20.0432C36.9311 20.0999 36.0455 20.1377 35.1599 20.1566C34.2743 20.1566 33.439 20.1377 32.654 20.0999C31.9294 20.0621 31.3759 19.8636 30.9935 19.5043C30.6111 19.1262 30.4198 18.6157 30.4198 17.9728V3.30995C30.4198 3.21541 30.4601 3.13033 30.5406 3.0547C30.6413 2.96016 30.752 2.91289 30.8727 2.91289H33.3786C33.4994 2.91289 33.6101 2.96016 33.7107 3.0547C33.8113 3.13033 33.8617 3.21541 33.8617 3.30995V16.8951C33.8617 17.1787 34.0428 17.33 34.4051 17.3489C34.8882 17.3867 35.4618 17.4056 36.126 17.4056C36.7902 17.3867 37.4846 17.3583 38.2092 17.3205C38.9338 17.2638 39.6584 17.1881 40.383 17.0936C41.1277 16.9991 41.802 16.8856 42.4058 16.7533C42.5065 16.7344 42.6172 16.7438 42.7379 16.7816C42.8788 16.8194 42.9694 16.9045 43.0096 17.0369L43.3116 18.8237Z" fill="#6549BA"/>
<path d="M62.5866 15.6188C62.486 15.6566 62.3652 15.6661 62.2243 15.6472C62.1035 15.6094 61.9929 15.5148 61.8922 15.3636L60.8053 13.6052C60.7248 13.4539 60.7148 13.3215 60.7751 13.2081C60.8556 13.0757 60.9663 12.9907 61.1072 12.9528C62.6168 12.4234 63.9352 11.8562 65.0623 11.2512C66.2096 10.6272 67.1757 9.91817 67.9607 9.12405C68.7658 8.32993 69.3897 7.42236 69.8325 6.40135C70.2955 5.38034 70.5974 4.19861 70.7383 2.85617C70.7584 2.72382 70.7987 2.59146 70.859 2.45911C70.9396 2.32676 71.0603 2.27003 71.2214 2.28894L73.848 2.40239C74.1902 2.42129 74.3512 2.62928 74.3311 3.02634C74.3109 3.51794 74.2505 3.98117 74.1499 4.41605C74.3914 5.32361 74.8141 6.19336 75.4179 7.0253C76.0218 7.85724 76.7564 8.62299 77.6219 9.32258C78.5075 10.0033 79.4837 10.6083 80.5505 11.1377C81.6172 11.6671 82.7243 12.0831 83.8715 12.3856C84.0124 12.4234 84.0929 12.5085 84.1131 12.6409C84.1533 12.7543 84.1533 12.8583 84.1131 12.9528L83.0865 14.768C82.9255 15.0516 82.684 15.1556 82.362 15.0799C81.4361 14.8531 80.5002 14.5316 79.5542 14.1157C78.6283 13.6997 77.7326 13.2175 76.8671 12.6692C76.0016 12.102 75.2066 11.478 74.482 10.7974C73.7574 10.0978 73.1435 9.35094 72.6403 8.55682C71.634 10.2207 70.2653 11.6388 68.5343 12.811C66.8235 13.9833 64.8409 14.9192 62.5866 15.6188ZM85.6226 20.3835C85.7233 20.3835 85.8239 20.4308 85.9245 20.5253C86.0252 20.6199 86.0755 20.7239 86.0755 20.8373V22.6808C86.0755 22.7753 86.0252 22.8699 85.9245 22.9644C85.8239 23.059 85.7233 23.1062 85.6226 23.1062H59.326C59.2052 23.1062 59.1045 23.059 59.024 22.9644C58.9435 22.8699 58.9033 22.7753 58.9033 22.6808V20.8373C58.9033 20.5348 59.0442 20.3835 59.326 20.3835H85.6226Z" fill="#6549BA"/>
</svg>
