<svg width="120" height="23" viewBox="0 0 120 23" fill="none" xmlns="http://www.w3.org/2000/svg">
<path d="M94.8812 10.7123C94.8812 10.8416 94.8476 10.9385 94.7803 11.0032C94.7299 11.0678 94.6627 11.1001 94.5787 11.1001H80.3609C79.6887 11.1001 79.2181 10.9547 78.9492 10.6639C78.6803 10.3569 78.5459 9.92062 78.5459 9.35511V2.03583C78.5459 1.42185 78.6887 1.00984 78.9744 0.799791C79.2601 0.573587 79.7223 0.460486 80.3609 0.460486H94.3518C94.5871 0.460486 94.7047 0.565508 94.7047 0.775553V2.3509C94.7047 2.5771 94.5871 2.6902 94.3518 2.6902H81.8986C81.5961 2.6902 81.4449 2.82754 81.4449 3.10221V4.67756H94.0241C94.1081 4.67756 94.1837 4.70987 94.251 4.7745C94.335 4.83913 94.377 4.91992 94.377 5.01686V6.49526C94.377 6.5922 94.335 6.67299 94.251 6.73762C94.1837 6.78609 94.1081 6.81033 94.0241 6.81033H81.4449V8.3372C81.4449 8.69266 81.5961 8.87039 81.8986 8.87039H94.4778C94.6123 8.87039 94.7131 8.88655 94.7803 8.91886C94.8476 8.95118 94.8812 9.03196 94.8812 9.16122V10.7123ZM98.0071 15.1233C98.0071 15.2041 97.9651 15.2849 97.881 15.3656C97.797 15.4464 97.713 15.4868 97.629 15.4868H88.1504V22.491C88.1504 22.7172 88.0328 22.8303 87.7975 22.8303H85.6043C85.3691 22.8303 85.2514 22.7172 85.2514 22.491V15.4868H75.6721C75.5712 15.4868 75.4872 15.4464 75.42 15.3656C75.3528 15.2849 75.3191 15.2041 75.3191 15.1233V13.5479C75.3191 13.2894 75.4368 13.1602 75.6721 13.1602H97.629C97.713 13.1602 97.797 13.2006 97.881 13.2813C97.9651 13.3621 98.0071 13.451 98.0071 13.5479V15.1233Z" fill="white"/>
<path d="M107.169 17.4499C106.211 17.4499 105.345 17.2561 104.572 16.8683C103.816 16.4643 103.169 15.915 102.631 15.2202C102.11 14.5093 101.707 13.661 101.421 12.6754C101.135 11.6898 100.993 10.6073 100.993 9.42782C100.993 8.21602 101.135 7.11732 101.421 6.13172C101.707 5.14612 102.11 4.30594 102.631 3.61117C103.169 2.9164 103.816 2.38321 104.572 2.01159C105.345 1.62381 106.211 1.42993 107.169 1.42993C108.059 1.42993 108.866 1.5915 109.589 1.91465C110.311 2.2378 110.933 2.69828 111.454 3.2961C111.992 3.87777 112.421 4.58869 112.74 5.42887C113.059 6.26905 113.261 7.20618 113.345 8.24025H117.101V0.315069C117.101 0.105023 117.21 0 117.429 0H119.672C119.891 0 120 0.105023 120 0.315069V22.6849C120 22.895 119.891 23 119.672 23H117.429C117.21 23 117.101 22.895 117.101 22.6849V10.5669H113.345C113.261 11.6171 113.059 12.5704 112.74 13.4268C112.421 14.2669 111.992 14.9859 111.454 15.5838C110.933 16.1816 110.311 16.6421 109.589 16.9652C108.866 17.2884 108.059 17.4499 107.169 17.4499ZM110.547 9.42782C110.547 8.68458 110.471 7.98174 110.32 7.31928C110.169 6.64068 109.95 6.05093 109.664 5.55005C109.379 5.04918 109.026 4.65332 108.606 4.36249C108.185 4.0555 107.706 3.902 107.169 3.902C106.648 3.902 106.177 4.0555 105.757 4.36249C105.354 4.65332 105.009 5.04918 104.723 5.55005C104.438 6.05093 104.219 6.64068 104.068 7.31928C103.917 7.98174 103.841 8.68458 103.841 9.42782C103.841 10.1549 103.917 10.8577 104.068 11.5364C104.219 12.1988 104.438 12.7886 104.723 13.3056C105.009 13.8065 105.354 14.2104 105.757 14.5174C106.177 14.8244 106.648 14.9779 107.169 14.9779C107.706 14.9779 108.185 14.8244 108.606 14.5174C109.026 14.2104 109.379 13.8065 109.664 13.3056C109.95 12.7886 110.169 12.1988 110.32 11.5364C110.471 10.8577 110.547 10.1549 110.547 9.42782Z" fill="white"/>
<path d="M7.84798 17.8969C7.7108 18.0421 7.56504 18.1388 7.41071 18.1872C7.27353 18.2355 7.11919 18.1952 6.94772 18.0662L5.7388 17.123C5.60162 17.0102 5.5416 16.8973 5.55875 16.7844C5.59304 16.6555 5.67021 16.5184 5.79024 16.3733C6.0989 16.0186 6.38184 15.6639 6.63906 15.3091C6.91342 14.9383 7.17064 14.5513 7.41071 14.1483C7.03346 13.7774 6.67335 13.3582 6.3304 12.8906C5.98744 12.4069 5.6702 11.9071 5.37869 11.3912C5.00144 12.2135 4.5556 12.9954 4.04117 13.7371C3.52673 14.4788 2.94371 15.2124 2.29209 15.938C2.15491 16.0831 2.00915 16.1798 1.85482 16.2282C1.70049 16.2766 1.54616 16.2362 1.39183 16.1073L0.182909 15.1399C0.0457267 15.0431 -0.0142898 14.9383 0.002858 14.8254C0.0371536 14.6965 0.114314 14.5514 0.234349 14.3901C1.0403 13.455 1.70049 12.544 2.21492 11.6572C2.7465 10.7704 3.16662 9.8272 3.47528 8.82755C3.78395 7.8279 3.99829 6.73957 4.11833 5.56257C4.25551 4.38556 4.3241 3.04732 4.3241 1.54784C4.3241 1.4511 4.3584 1.37049 4.42699 1.30599C4.51273 1.22538 4.60704 1.18507 4.70993 1.18507L6.71622 1.25762C6.80196 1.25762 6.87913 1.29793 6.94772 1.37855C7.01631 1.44304 7.05061 1.52366 7.05061 1.6204C7.05061 2.82965 7.00773 3.95023 6.92199 4.98212C6.83626 5.9979 6.69907 6.95724 6.51045 7.86015C6.73337 8.53733 7.03346 9.21451 7.41071 9.89169C7.80511 10.5689 8.22523 11.1816 8.67107 11.7298C9.90571 8.77918 10.523 5.38521 10.523 1.54784C10.523 1.4511 10.5573 1.37049 10.6259 1.30599C10.7117 1.22538 10.7974 1.18507 10.8831 1.18507L12.9152 1.25762C13.0009 1.25762 13.0781 1.29793 13.1466 1.37855C13.2152 1.44304 13.2495 1.52366 13.2495 1.6204C13.2495 2.74904 13.1895 3.84543 13.0695 4.90957C12.9666 5.95759 12.8123 6.97336 12.6065 7.95689C12.7094 8.50508 12.9152 9.08552 13.2238 9.69821C13.5325 10.2948 13.8754 10.8833 14.2527 11.4637C14.6471 12.028 15.0501 12.5521 15.4616 13.0358C15.8903 13.5195 16.2675 13.9064 16.5934 14.1966C16.8849 14.4385 16.902 14.6965 16.6448 14.9706L15.6931 15.9621C15.5902 16.0589 15.4702 16.1234 15.333 16.1556C15.1958 16.1717 15.0415 16.1234 14.87 16.0105C14.6128 15.817 14.3298 15.5671 14.0212 15.2608C13.7125 14.9383 13.4039 14.5836 13.0952 14.1966C12.7865 13.8097 12.495 13.4066 12.2207 12.9874C11.9463 12.5682 11.7148 12.157 11.5262 11.7539C10.5831 14.2047 9.35698 16.2524 7.84798 17.8969ZM21.0947 22.6372C21.0947 22.8468 20.9832 22.9516 20.7603 22.9516H18.6254C18.4025 22.9516 18.291 22.8468 18.291 22.6372V0.314406C18.291 0.104802 18.4025 0 18.6254 0H20.7603C20.9832 0 21.0947 0.104802 21.0947 0.314406V22.6372Z" fill="white"/>
<path d="M40.4484 21.8391C40.4484 22.0648 40.337 22.1777 40.1141 22.1777H38.0049C37.7648 22.1777 37.6448 22.0648 37.6448 21.8391V9.5531H32.629C32.5433 9.5531 32.4576 9.52086 32.3718 9.45636C32.3032 9.39187 32.2689 9.31931 32.2689 9.2387V7.54574C32.2689 7.46513 32.3032 7.40063 32.3718 7.35226C32.4576 7.28777 32.5433 7.25552 32.629 7.25552H37.6448V0.725553C37.6448 0.515949 37.7648 0.411147 38.0049 0.411147H40.1141C40.337 0.411147 40.4484 0.515949 40.4484 0.725553V21.8391ZM45.4385 22.6856C45.4385 22.8952 45.3184 23 45.0783 23H42.8663C42.7805 23 42.6948 22.9678 42.6091 22.9033C42.5405 22.8388 42.5062 22.7662 42.5062 22.6856V0.314406C42.5062 0.233789 42.5405 0.161234 42.6091 0.0967405C42.6948 0.0322468 42.7891 0 42.892 0H45.0783C45.3184 0 45.4385 0.104802 45.4385 0.314406V22.6856ZM36.333 15.2124C36.3501 15.3253 36.3158 15.4139 36.2301 15.4784C36.1443 15.5268 36.0415 15.5671 35.9214 15.5994C35.3041 15.7606 34.6268 15.8977 33.8894 16.0105C33.1692 16.1073 32.4233 16.1879 31.6516 16.2524C30.8971 16.3007 30.1426 16.333 29.3881 16.3491C28.6336 16.3491 27.922 16.333 27.2532 16.3007C26.6359 16.2685 26.1643 16.0992 25.8385 15.7929C25.5127 15.4704 25.3498 15.0351 25.3498 14.4869V1.98318C25.3498 1.90256 25.3841 1.83 25.4527 1.76551C25.5384 1.68489 25.6327 1.64458 25.7356 1.64458H27.8705C27.9734 1.64458 28.0677 1.68489 28.1535 1.76551C28.2392 1.83 28.2821 1.90256 28.2821 1.98318V13.5678C28.2821 13.8097 28.4364 13.9387 28.7451 13.9548C29.1566 13.987 29.6453 14.0032 30.2112 14.0032C30.7771 13.987 31.3687 13.9628 31.986 13.9306C32.6033 13.8822 33.2206 13.8177 33.838 13.7371C34.4724 13.6565 35.0469 13.5598 35.5613 13.4469C35.6471 13.4308 35.7414 13.4388 35.8442 13.4711C35.9643 13.5033 36.0415 13.5759 36.0757 13.6887L36.333 15.2124Z" fill="white"/>
<path d="M52.7545 12.4795C52.6687 12.5117 52.5658 12.5198 52.4458 12.5037C52.3429 12.4714 52.2486 12.3908 52.1629 12.2618L51.2369 10.7624C51.1683 10.6334 51.1597 10.5205 51.2112 10.4238C51.2798 10.3109 51.3741 10.2383 51.4941 10.2061C52.7802 9.75464 53.9034 9.27094 54.8636 8.755C55.8411 8.22292 56.6642 7.6183 57.3329 6.94112C58.0188 6.26393 58.5504 5.49001 58.9277 4.61935C59.3221 3.74869 59.5793 2.74097 59.6993 1.59622C59.7165 1.48335 59.7508 1.37049 59.8022 1.25762C59.8708 1.14476 59.9737 1.09639 60.1109 1.11251L62.3487 1.20925C62.6402 1.22538 62.7774 1.40273 62.7602 1.74133C62.7431 2.16053 62.6916 2.55556 62.6059 2.92639C62.8117 3.70032 63.1718 4.44199 63.6862 5.15142C64.2006 5.86085 64.8265 6.51384 65.5639 7.11041C66.3184 7.69085 67.15 8.2068 68.0589 8.65825C68.9677 9.10971 69.9109 9.46442 70.8883 9.7224C71.0083 9.75464 71.0769 9.8272 71.094 9.94006C71.1283 10.0368 71.1283 10.1255 71.094 10.2061L70.2195 11.7539C70.0823 11.9958 69.8766 12.0845 69.6022 12.02C68.8134 11.8265 68.016 11.5524 67.2101 11.1977C66.4213 10.843 65.6582 10.4318 64.9208 9.96425C64.1835 9.48055 63.5061 8.94848 62.8888 8.36803C62.2715 7.77147 61.7485 7.13459 61.3198 6.45741C60.4624 7.87627 59.2964 9.08552 57.8216 10.0852C56.3641 11.0848 54.675 11.8829 52.7545 12.4795ZM72.3801 16.5426C72.4659 16.5426 72.5516 16.5829 72.6374 16.6635C72.7231 16.7441 72.766 16.8328 72.766 16.9295V18.5016C72.766 18.5822 72.7231 18.6628 72.6374 18.7434C72.5516 18.824 72.4659 18.8644 72.3801 18.8644H49.9765C49.8736 18.8644 49.7879 18.824 49.7193 18.7434C49.6507 18.6628 49.6164 18.5822 49.6164 18.5016V16.9295C49.6164 16.6716 49.7365 16.5426 49.9765 16.5426H72.3801Z" fill="white"/>
</svg>
