<svg width="24" height="24" viewBox="0 0 24 24" fill="none" xmlns="http://www.w3.org/2000/svg">
<g id="code_24px">
<path id="icon/action/code_24px" fill-rule="evenodd" clip-rule="evenodd" d="M12 19.2L8.10003 15.3C7.91517 15.1128 7.66308 15.0075 7.40003 15.0075C7.13698 15.0075 6.88488 15.1128 6.70003 15.3C6.31003 15.69 6.31003 16.31 6.70003 16.7L11.3 21.29C11.69 21.68 12.32 21.68 12.71 21.29L17.3 16.7C17.69 16.31 17.69 15.69 17.3 15.3C17.1152 15.1128 16.8631 15.0075 16.6 15.0075C16.337 15.0075 16.0849 15.1128 15.9 15.3L12 19.2ZM12 4.79998L8.10003 8.69998C7.71003 9.08998 7.09003 9.08998 6.70003 8.69998C6.31003 8.30998 6.31003 7.68998 6.70003 7.29998L11.3 2.70998C11.69 2.31998 12.32 2.31998 12.71 2.70998L17.3 7.29998C17.4872 7.48483 17.5925 7.73693 17.5925 7.99998C17.5925 8.26303 17.4872 8.51513 17.3 8.69998C16.91 9.08998 16.29 9.08998 15.9 8.69998L12 4.79998Z" fill="black" fill-opacity="0.54"/>
</g>
</svg>
